<?xml version="1.0" encoding="UTF-8"?>
<svg xmlns="http://www.w3.org/2000/svg" viewBox="0 0 749.53 890.07">
    <g id="Layer_2">
        <path d="M352.7,336.57c-12.14,2.27-20.49,5.85-27.17,8.75-19.03,8.28-30.95,17.9-38.92,24.43-3.63,2.97-18.6,15.45-32.91,35.22-15.54,21.45-21.9,39.89-23.51,44.79-2.36,7.17-4.79,20.52-9.67,47.23-3.59,19.67-2.85,19.04-4.7,25.45-1.42,4.89-2.9,8.9-2.87,15.06.02,4.01.67,7.99,1.57,13.44,1.29,7.87,1.81,7.67,1.83,10.59.05,6.1-2.18,8.7-3.92,14.86-1.35,4.8-1.07,7-1.31,17.1-.44,18.57-1.53,16.47-1.57,29.93-.03,12.41,0,18.83,2.09,27.69.91,3.86,2.63,10.92,7.05,19.54,6.92,13.49,12.71,15.69,15.67,27.28,1.47,5.75.46,6.83,2.61,12.01,1.68,4.04,3.35,5.94,11.23,16.49,5.39,7.21,8.08,10.81,9.14,12.42,6.21,9.38,6.02,11.64,10.71,15.88,2.73,2.46,1.97.96,12.8,7.74,4.71,2.94,17.53,11.16,22.99,11.2.33,0,2.18-.02,4.7.2.43.04,1.9.17,3.4.41,4.01.64,4.35,1.45,7.58,2.04,1.41.26,4.13.75,7.31.2,1.17-.2,2.31-.53,5.22-1.02,1.48-.25,2.34-.36,3.4-.2,1.51.22,2.41.83,3.13,1.22,1.73.93,3.68,1.1,7.58,1.43,3.51.3,6.45.55,9.67-.2,2.77-.65,3.98-1.62,8.88-4.89,8.11-5.4,7.3-4.38,10.45-6.72,6.19-4.6,6.25-6.25,10.97-9.98,4.68-3.69,7.72-4.51,14.63-7.94,13.3-6.61,12.43-8.73,27.17-16.9,9.14-5.06,7.43-3.11,20.9-10.18,9.53-5,19.38-10.7,24.82-13.84,3.65-2.11,5.48-3.17,7.31-4.28,11.68-7.04,19.77-11.91,25.6-17.92,3.4-3.5,6.49-7.85,10.45-18.53,6.42-17.29,5.58-25.43,9.14-44.79,5.59-30.43,11.44-30.91,8.88-45.19-2.31-12.92-7.5-14.82-7.58-28.3-.05-9.26,2.36-15.23-.78-25.85-2.1-7.1-3.76-6.4-5.75-13.03-2.65-8.84-.65-13.24,1.04-30.13,1.21-12.06,1.81-18.1,1.04-24.63-1.03-8.75-3.46-14.96-7.58-25.24-4.93-12.32-7.9-19.76-14.37-29.11-1.87-2.7-11.3-16.09-29.52-29.93-2.95-2.24-14.29-10.68-31.61-18.93-14.35-6.83-25.88-10.24-28.47-10.99-7.47-2.16-14.67-4.25-24.82-5.29-6-.61-18.65-1.44-33.96,1.43Z"
              style="fill:none; stroke:#fff; stroke-miterlimit:10; stroke-width:7px;"/>
        <path d="M238.59,468.86c-.41,3.5-1,8.55-1.7,14.66-.58,5.05-1,10.12-1.7,15.17,0,0-.67,4.9-1.44,16.18-.01.18-.06.85,0,1.73.05.76.08,1.24.26,1.83.37,1.19,1.09,2,1.31,2.24.79.85,1.65,1.32,2.22,1.63,1.1.59,2.05.85,3.4,1.22.9.25,1.96.53,3.4.71.57.07,2.11.24,4.18.1,2.18-.14,2.92-.49,6.14-1.12,1.17-.23.92-.15,4.96-.81,4.04-.66,4.21-.72,7.84-1.32,4.84-.8,5.11-.78,8.88-1.43,2.43-.41,4.13-.73,6.79-1.22,9.05-1.68,9.44-1.9,12.28-2.34,2.92-.46,7.22-.97,12.67-1.02"
              style="fill:none; stroke:#fff; stroke-miterlimit:10; stroke-width:7px;"/>
        <path d="M412.69,508.46c1,.08,2.55.2,4.44.31,5.65.31,9.52.23,14.11.2,1.82,0,7.15-.03,13.06.1,9.17.21,10.07.58,16.72.51,1.02-.01,5.16-.07,10.32-.41,2.38-.16,4.01-.31,4.96-.41,2.85-.29,4.91-.59,5.75-.71,2.46-.37,3.68-.55,4.96-.92,1.18-.33,2.88-.83,4.7-1.93,1.38-.84,2.2-1.65,3-2.44,1.78-1.76,2.67-3.3,2.87-3.66.3-.54.73-1.38,1.31-3.26.66-2.14.95-3.79,1.31-6.01.58-3.57.87-5.35,1.04-6.82.43-3.65.56-6.43.65-8.45.11-2.57.14-4.75.13-6.41"
              style="fill:none; stroke:#fff; stroke-miterlimit:10; stroke-width:7px;"/>
        <path d="M369.85,573.09c-1.74-3.64,2.18-7.7,3.13-8.69,1.36-1.41,1.57-1.05,6.97-4.89,3.07-2.18,3.28-2.5,5.92-4.34,2.84-1.98,5.09-3.36,6.92-4.48,2.64-1.61,6.8-4.15,11.89-6.65,7.06-3.47,12.85-5.37,18.81-7.33,2.23-.73,8.28-2.67,16.37-4.61,4.07-.98,8.68-2.07,14.98-2.99,3.9-.57,7.24-.89,9.75-1.09.86,1.3,1.98,3.34,2.44,5.97.36,2.05.16,3.63,0,4.89-.53,4.1-2.21,7.07-2.66,7.84-1.27,2.16-2.95,4.15-5.7,6.55-5.97,5.2-12.42,8.37-16.02,10.04-4.81,2.24-8.58,3.7-24.73,9.23-15.07,5.16-24.26,8.16-32.39,7.33-4.41-.45-8.32-2.01-8.71-2.17-3.23-1.31-5.91-2.4-6.97-4.61Z"
              style="fill:none; stroke:#fff; stroke-miterlimit:10; stroke-width:7px;"/>
        <path d="M275.42,544.15c-1.58-.42-4.72-1.2-13.32-2.24-9.03-1.09-13.67-1.66-20.38-1.63-8.79.04-13.57,1.05-16.46,1.83-1.88.51-3.4,1.03-4.44,1.43.45.8,1.05,2.06,1.31,3.66.27,1.74-.02,2.88-.52,5.9-.2,1.2-.49,3.02-.78,5.29.97.65,2.47,1.56,4.44,2.44,4.9,2.2,9.38,2.73,12.28,3.05,12.79,1.42,19.18,2.14,21.42,2.24,4.88.23,12.14.22,26.64.2.5,0,2.36,0,4.7,0,.89,0,2.94,0,4.18,0,2.26,0,3.38,0,3.4,0,1.96.11,2.65.36,3.13,0,.32-.24.27-.52.26-2.04-.01-2.08.07-1.92,0-2.44-.05-.38-.23-1.37-1.04-2.85-1.6-2.9-4.31-5.18-4.7-5.5-2.99-2.48-5.87-3.85-8.79-5.23-5.22-2.45-9.68-3.7-11.32-4.14Z"
              style="fill:none; stroke:#fff; stroke-miterlimit:10; stroke-width:7px;"/>
        <path d="M350.3,527.53c-.33,2.15-.67,4.32-1.04,6.51-.8,4.72-1.67,9.33-2.61,13.84"
              style="fill:none; stroke:#fff; stroke-miterlimit:10; stroke-width:7px;"/>
        <path d="M340.38,575.98c-1.2,2.96-2.85,7.15-4.7,12.21-1.21,3.31-2.55,7.36-5.22,15.47-1.78,5.4-2.84,8.72-3.13,13.44-.16,2.64,0,4.89,0,4.89.07.68.06.31.44,2.99.14.98.22,1.64.52,2.54.32.98.64,1.48.96,1.87.26.31.6.72,1.22,1.09.69.41,1.34.53,2.31.71.3.06,1.28.23,2.74.27.35.01,1.53.04,3.18-.14,1.27-.13,2.15-.31,3.74-.64,1.03-.21,2.26-.47,3.79-.88,2.7-.73,4.65-1.49,6.23-2.1,2.25-.88,4.13-1.75,5.75-2.54,3.97-1.96,6.65-3.66,9.33-5.33,2.72-1.7,6.73-4.17,11.88-7.22"
              style="fill:none; stroke:#fff; stroke-miterlimit:10; stroke-width:7px;"/>
        <path d="M266.63,699.89c3.49-1.17,4.5-2.4,8.49-4.84,3.43-2.09,6.25-3.33,11.89-5.8,4.83-2.12,4.53-1.7,10.84-4.43,6.62-2.86,5.88-2.85,9.4-4.17,1.87-.7,3.99-1.41,6.6-2.9,1.58-.9,2.77-1.76,3.53-2.34.86.33,2.44.95,4.44,1.73,3.9,1.52,4.73,1.86,6.07,2.24,1.3.37,3.26.83,5.81,1.07.43-.28,1.07-.7,1.83-1.22,1.53-1.04,2.35-1.59,3.27-2.29,1.66-1.27,2.5-1.9,3.27-2.9.8-1.04,1.18-2.01,1.37-2.65.57.45,1.39,1.04,2.48,1.65.59.33,1.77.98,3.2,1.41,2.08.62,3.93.54,4.77.51,4.02-.15,8.04.24,12.06.12,6.07-.18,10.64.29,17.07.95,6.7.69,11.68,1.62,15.33,2.31,7.41,1.4,12.85,2.84,18.98,4.48,4.15,1.11,9.23,2.54,14.98,4.34-.65,1.36-1.68,3.23-3.31,5.29-1.48,1.87-3.47,3.93-7.31,6.79-5.08,3.78-9.9,6.35-13.24,8.01-3.96,1.96-4.85,2.14-19.85,8.01-9.9,3.87-11.98,4.76-16.72,6.24-6.42,2.01-9.64,3.01-13.93,3.39-6.45.57-7.69-.69-14.11.41-2.97.51-5,1.17-9.06,1.36-3.31.15-5.34.23-7.31-.68-3.04-1.39-2.29-3.44-5.22-5.43-1.98-1.35-3.71-1.36-9.23-2.17,0,0-4.14-.61-12.71-2.31-3.15-.62-2.8-.64-14.98-3.53-8.83-2.1-9.06-2.1-11.15-2.71-6.53-1.93-10.78-3.84-12.71-4.75-2.2-1.04-3.97-2-5.22-2.71.9-.14,2.16-.36,3.66-.68,3-.64,5.52-1.37,6.75-1.78Z"
              style="fill:none; stroke:#fff; stroke-miterlimit:10; stroke-width:7px;"/>
        <path d="M267.71,703.16c2.72.3,6.34.62,10.62.81,2.73.12,9.87.37,19.5-.27,1.79-.12,5.87-.42,18.98-2.17,9.36-1.25,13.04-1.87,18.98-2.71,4.7-.67,19.06-2.68,36.57-4.07,8.76-.7,14.92-.97,25.43-2.44,4.34-.61,7.9-1.21,10.27-1.63"
              style="fill:none; stroke:#fff; stroke-miterlimit:10; stroke-width:7px;"/>
        <path d="M437.77,637.41c11.64-3.96,21.29-8.28,29-12.21,6.74-3.44,13.22-6.76,20.38-12.21,5.87-4.47,13.26-11.2,19.59-20.77"
              style="fill:none; stroke:#fff; stroke-miterlimit:10; stroke-width:7px;"/>
        <circle cx="378.82" cy="507.75" r="367.21"
                style="fill:none; stroke:#fff; stroke-miterlimit:10; stroke-width:7px;"/>
    </g>
    <g id="Layer_4">
        <path d="M108.59,303.66l6.09-6.55,43.85,40.74,34.98-37.65-43.85-40.74,6.08-6.55,99.77,92.69-6.08,6.55-49.85-46.31-34.98,37.65,49.85,46.31-6.08,6.55-99.77-92.69Z"
              style="fill:#fff; stroke-width:0px;"/>
        <path d="M207.36,216.69l42.66,86.8c7.7,15.67,19.44,27.44,37.29,18.67,18.19-8.94,17.02-23.02,8.09-41.18l-42.57-86.63,8.02-3.94,42.66,86.81c11.02,22.42,10.55,41.01-12.92,52.54-22.23,10.92-37.31,1.1-48.17-21l-43.27-88.04,8.2-4.03Z"
              style="fill:#fff; stroke-width:0px;"/>
        <path d="M391.66,304.49l-7.4.81c-.8-3.54-1.72-8.23-2.63-16.5-2.49,8.97-6.48,19.32-25.2,21.38-29.98,3.3-39.71-29.44-43.71-65.79-4.93-44.82,5.19-70.61,31.68-73.53,29.77-3.28,34.94,23.61,36.23,31.71l-9.07,1c-.88-4.35-4.37-26.9-26.46-24.47-21.34,2.35-27.01,26.85-22.94,63.85,3.89,35.3,12.73,61.28,34.07,58.93,21.67-2.38,23.98-21.55,20.27-55.24l-.66-6-26.84,2.96-.9-8.23,35.53-3.91,8.04,73.02Z"
              style="fill:#fff; stroke-width:0px;"/>
        <path d="M427.71,172.65l8.67,2.19-14.69,58.03,49.81,12.61,14.69-58.03,8.67,2.19-33.41,132.02-8.67-2.19,16.69-65.96-49.81-12.61-16.69,65.96-8.67-2.19,33.41-132.02Z"
              style="fill:#fff; stroke-width:0px;"/>
        <path d="M551.24,299l-39.01-25.36-32.77,50.42,43.05,27.98-5.71,6.16-49.34-32.07,74.21-114.18,48.51,31.53-4.52,6.95-41.02-26.66-27.9,42.92,39.01,25.36-4.51,6.95Z"
              style="fill:#fff; stroke-width:0px;"/>
        <path d="M544,338.7c-11.51,10.73-15.61,24.59-5.14,37.36,9.96,12.16,21.78,13.98,36.63,1.81,12.6-10.32,15.27-20.25,10.25-41.16-5.27-21.63-4.22-34.88,10.79-47.19,12.92-10.59,31.29-11.84,44.4,4.16,14.93,18.22,5.59,34.69-5.66,44.42l-5.66-6.91c4.14-4.17,17.13-17.41,4.56-32.75-9.68-11.81-21.99-9.95-31.22-2.38-11.66,9.56-12.91,19.3-8.29,38.47,6.03,25.34,1.68,38.31-12.77,50.16-16.7,13.69-35.14,14.01-49.55-3.57-15.68-19.14-8.4-36.25,5.86-49.48l5.79,7.06Z"
              style="fill:#fff; stroke-width:0px;"/>
        <path d="M79.83,558.61l1.87,8.54-18.81,4.12,2.51,11.47,18.81-4.12,1.87,8.54-47.59,10.42-1.87-8.54,21.38-4.68-2.51-11.47-21.38,4.68-1.87-8.54,47.59-10.42Z"
              style="fill:#fff; stroke-width:0px;"/>
        <path d="M66.47,618.24l-4.27-13.29-17.18,5.51,4.71,14.67-2.5.35-5.4-16.81,38.9-12.49,5.3,16.53-2.37.76-4.49-13.98-14.62,4.69,4.27,13.29-2.37.76Z"
              style="fill:#fff; stroke-width:0px;"/>
        <path d="M87.98,617.71l1,2.49-35.62,14.28,5.57,13.9-2.53.37-6.34-15.83,37.93-15.2Z"
              style="fill:#fff; stroke-width:0px;"/>
        <path d="M96.12,637.41l4.16,8.46c2.73,5.56.91,10.96-5.25,13.99-6.16,3.03-12.05,1.89-15.28-4.69l-2.66-5.41-16.44,8.08-1.18-2.41,36.66-18.02ZM79.3,648.67l2.54,5.18c2.4,4.87,6.38,6.23,11.94,3.5,4.29-2.11,6.44-5.96,4.1-10.72l-2.81-5.71-15.78,7.76Z"
              style="fill:#fff; stroke-width:0px;"/>
        <path d="M108.86,661.99l-35.56,20.11-1.32-2.33,35.56-20.11,1.32,2.33Z" style="fill:#fff; stroke-width:0px;"/>
        <path d="M78.61,691.41l34.18-22.37,2.06,3.14c-19.51,28.42-21.62,31.67-22.69,33.02l.03.05c4.77-3.41,9.92-6.92,15.44-10.54l15.38-10.07,1.49,2.28-34.18,22.37-1.96-2.99c20.37-29.62,22.44-32.63,23.42-33.78l-.03-.05c-4.15,3.08-10.07,7.02-16.24,11.06l-15.44,10.11-1.46-2.23Z"
              style="fill:#fff; stroke-width:0px;"/>
        <path d="M109.46,734.19l-1.39-1.75c.77-.77,1.82-1.75,3.77-3.3-2.68.8-5.94,1.43-9.45-2.99-5.62-7.09,1.15-14.78,9.75-21.6,10.6-8.4,18.77-9.94,23.73-3.67,5.58,7.04-.43,12.64-2.28,14.26l-1.7-2.15c.97-.92,6.14-5.4,2-10.63-4-5.05-11.13-2.58-19.88,4.35-8.35,6.62-13.54,13.01-9.54,18.05,4.06,5.13,9.3,2.66,17.27-3.66l1.42-1.12-5.03-6.35,1.95-1.54,6.66,8.4-17.27,13.69Z"
              style="fill:#fff; stroke-width:0px;"/>
        <path d="M164.79,722.32l-23.15,24.24c-2.76,2.89-5.31,7-1.43,10.7,3.75,3.58,7.31,1.47,10.55-1.92l23.19-24.28,6.32,6.04-23.29,24.37c-6.04,6.32-13.42,9.11-21.93.98-8.38-8-6.2-15.17.14-21.8l23.28-24.37,6.32,6.04Z"
              style="fill:#fff; stroke-width:0px;"/>
        <path d="M189.26,804.37l-5.44-3.82c.68-1.33,1.19-2.31,2.04-3.63-3.99,1.91-7.41.89-10.78-1.47-8.33-5.84-6.15-15.37,2.94-28.33,10.21-14.56,19.51-17.38,28.08-11.38,10.81,7.57,4.91,17.26,3.37,19.7l-7.06-4.95c1.01-1.69,3.45-5.91-.76-8.87-4.6-3.23-10.18,2.01-16.24,10.65-6.52,9.3-9,15.17-4.45,18.36,3.79,2.65,6.96.55,11.08-5.33l1.57-2.24-5.37-3.76,4.27-6.09,12.47,8.74s-15.71,22.41-15.71,22.41Z"
              style="fill:#fff; stroke-width:0px;"/>
        <path d="M223,800.15l-12.13-6.92-8.94,15.67,13.38,7.63-1.6,1.94-15.33-8.74,20.24-35.49,15.08,8.6-1.23,2.16-12.75-7.27-7.61,13.34,12.13,6.92-1.23,2.16Z"
              style="fill:#fff; stroke-width:0px;"/>
        <path d="M243.46,790.39l-8.44-4.01,1.07-2.25,19.3,9.17-1.07,2.25-8.44-4.01-16.47,34.65-2.42-1.15,16.47-34.65Z"
              style="fill:#fff; stroke-width:0px;"/>
        <path d="M271.05,791.38l8.3,2.71-5.98,18.3,11.16,3.65,5.98-18.3,8.3,2.71-15.14,46.3-8.3-2.71,6.8-20.8-11.16-3.65-6.8,20.8-8.3-2.71,15.14-46.3Z"
              style="fill:#fff; stroke-width:0px;"/>
        <path d="M315.69,833.1l-13.62-3.04-3.93,17.61,15.03,3.36-.96,2.33-17.23-3.85,8.91-39.87,16.94,3.79-.54,2.43-14.32-3.2-3.35,14.99,13.62,3.04-.54,2.42Z"
              style="fill:#fff; stroke-width:0px;"/>
        <path d="M326.09,814.28l2.65.4-5.71,37.95,14.81,2.23-.96,2.37-16.87-2.54,6.08-40.4Z"
              style="fill:#fff; stroke-width:0px;"/>
        <path d="M347.22,817.21l9.4.69c6.17.46,9.91,4.76,9.4,11.61-.5,6.84-4.47,11.35-11.78,10.81l-6.01-.44-1.35,18.27-2.67-.2,3.01-40.75ZM348.42,837.42l5.75.42c5.42.4,8.6-2.35,9.06-8.53.35-4.77-1.88-8.57-7.17-8.96l-6.35-.47-1.29,17.54Z"
              style="fill:#fff; stroke-width:0px;"/>
        <path d="M372,818.69l17.42-.02v2.49s-14.73.02-14.73.02l.02,15.6,13.78-.02v2.48s-13.78.02-13.78.02l.03,20.28h-2.68s-.06-40.85-.06-40.85Z"
              style="fill:#fff; stroke-width:0px;"/>
        <path d="M396.26,818.26l2.37,28.92c.43,5.22,2.41,9.8,8.36,9.31,6.06-.5,7.28-4.56,6.79-10.61l-2.36-28.86,2.67-.22,2.37,28.92c.61,7.47-1.56,12.61-9.38,13.25-7.4.61-10.54-3.79-11.14-11.16l-2.4-29.33,2.73-.22Z"
              style="fill:#fff; stroke-width:0px;"/>
        <path d="M421.65,815.68l2.65-.4,5.77,37.94,14.81-2.25-.22,2.54-16.87,2.56-6.14-40.39Z"
              style="fill:#fff; stroke-width:0px;"/>
        <path d="M481.74,821.68l-15.04,4.28,3.87,13.61,16.88-4.8,1.02,7.51-24.13,6.87-13.33-46.86,24.03-6.84,2.09,7.34-15.75,4.48,3.25,11.4,15.04-4.28,2.07,7.28Z"
              style="fill:#fff; stroke-width:0px;"/>
        <path d="M512.01,833.48l-14.76-14.52-.05.02-1.41,20.66-2.68,1.02,1.81-23.46-15.8-14.93,2.86-1.08,13.47,12.97.05-.02,1.69-18.72,2.73-1.04-2.24,21.45,17.19,16.58-2.86,1.08Z"
              style="fill:#fff; stroke-width:0px;"/>
        <path d="M517.43,815.16l3.02,14.78-2.43,1.14s-8.26-41.27-8.26-41.27l3.16-1.49,26.95,32.46-2.65,1.25-9.53-11.72-10.27,4.84ZM526.03,808.35c-7.51-9.11-11.98-14.53-13.62-16.9l-.11.05c.92,3.35,2.66,11.51,4.63,21.14l9.11-4.29Z"
              style="fill:#fff; stroke-width:0px;"/>
        <path d="M558.12,788.57c-4.09-6.89-7.8-13.36-9.79-16.93l-.05.03c2.05,6.49,7.79,25.2,11.17,38l-2.44,1.45c-7.74-7.66-22.44-22.85-27.57-28.32l-.11.06c2.63,3.95,7.53,11.84,11.08,17.82l8.92,15-2.29,1.36-20.88-35.12,3.43-2.04c10.52,9.8,23.29,23.39,26.74,27.09l.05-.03c-1.27-3.55-7.27-23.17-10.66-36.65l3.48-2.07,20.88,35.11-2.35,1.4-9.62-16.17Z"
              style="fill:#fff; stroke-width:0px;"/>
        <path d="M586.48,774.71c2.88,2.87,6.38,4.62,9.84,1.81,3.34-2.7,2.88-5.8.6-8.61-2.52-3.11-5.52-3.68-12.15-2.08-8.98,2.17-13.72,1.51-18.28-4.11-4.92-6.07-4.38-13.38,2.46-18.93,8.52-6.9,15.28-2.84,19.39,1.99l-6.64,5.38c-1.97-1.99-5.11-4.72-8.54-1.94-2.68,2.17-2.47,4.89-.39,7.46,2.21,2.72,4.46,3.02,10.56,1.48,9.34-2.37,14.85-1.79,19.99,4.55,4.82,5.94,5.12,13.84-2.88,20.32-8.7,7.05-15.87,3.63-20.71-1.85l6.74-5.47Z"
              style="fill:#fff; stroke-width:0px;"/>
        <path d="M618.59,736.12c9.32,9.48,12.94,17.23,6.89,23.17-5.83,5.73-13.35,2.31-22.79-7.3-9.4-9.56-12.04-17.26-6.51-22.7,5.83-5.73,12.86-2.89,22.41,6.83ZM604.61,749.94c9.04,9.19,15.27,11.39,19.23,7.5,4.05-3.98,1.84-10.12-7.12-19.23-9.4-9.57-14.92-10.96-18.84-7.1-3.84,3.77-1.96,9.99,6.73,18.84Z"
              style="fill:#fff; stroke-width:0px;"/>
        <path d="M608.73,717.12l1.76-2.02,28.92,25.21,9.84-11.29,1.47,2.09-11.21,12.86-30.8-26.84Z"
              style="fill:#fff; stroke-width:0px;"/>
        <path d="M623.55,699.61l23.27,17.33c4.2,3.13,8.95,4.67,12.51-.12,3.63-4.88,1.39-8.47-3.48-12.1l-23.22-17.3,1.6-2.15,23.27,17.34c6.01,4.48,8.43,9.5,3.74,15.79-4.44,5.96-9.81,5.4-15.73.99l-23.6-17.58,1.64-2.2Z"
              style="fill:#fff; stroke-width:0px;"/>
        <path d="M643.42,675.62l-4.97,7.91-2.1-1.32,11.38-18.09,2.11,1.32-4.97,7.91,32.48,20.43-1.43,2.27-32.48-20.43Z"
              style="fill:#fff; stroke-width:0px;"/>
        <path d="M650.89,658.15l35.66,19.94-1.31,2.34-35.66-19.94,1.31-2.34Z" style="fill:#fff; stroke-width:0px;"/>
        <path d="M681.94,641.04c11.98,5.77,18.01,11.84,14.33,19.48-3.55,7.36-11.79,6.69-23.92.84-12.08-5.82-17.17-12.18-13.81-19.16,3.55-7.37,11.12-7.07,23.4-1.16ZM673.45,658.78c11.61,5.6,18.22,5.55,20.63.55,2.46-5.11-1.69-10.14-13.21-15.69-12.08-5.82-17.75-5.26-20.13-.31-2.34,4.84,1.53,10.07,12.71,15.45Z"
              style="fill:#fff; stroke-width:0px;"/>
        <path d="M704.54,641.01l-38.26-14.34,1.32-3.52c34.46-1.07,38.34-1.28,40.05-1.21l.02-.06c-5.57-1.83-11.45-3.91-17.63-6.23l-17.21-6.45.96-2.55,38.26,14.34-1.26,3.35c-35.94,1.08-39.59,1.19-41.1,1.08l-.02.06c4.93,1.53,11.62,3.97,18.53,6.56l17.28,6.48-.94,2.5Z"
              style="fill:#fff; stroke-width:0px;"/>
        <path d="M705.57,607.34c4.62.98,8.73-.39,10.06-5.16,1.28-4.54-.31-7.76-5.86-9.31-4.7-1.32-7.6-.27-11.88,4.56-4.41,5.02-7.84,7.04-13.45,5.47-4.83-1.35-8.29-5.65-6.62-11.62,1.91-6.8,7.56-7.34,11.89-6.25l-.72,2.58c-1.74-.3-7.22-1.22-8.83,4.51-1.24,4.41,1.34,7.11,4.79,8.08,4.36,1.22,6.96-.15,10.88-4.58,5.19-5.84,9.12-7,14.52-5.49,6.24,1.75,9.49,6.23,7.65,12.79-2.01,7.15-7.46,8.3-13.17,7.07l.74-2.64Z"
              style="fill:#fff; stroke-width:0px;"/>
    </g>
</svg>