<?xml version="1.0" encoding="UTF-8"?>
<svg id="Layer_2" xmlns="http://www.w3.org/2000/svg" viewBox="0 0 273.8 284.54">
    <defs>
        <style>.cls-1{fill:#18181b;}.cls-1,.cls-2{stroke-width:0px;}.cls-2{fill:#34d399;}</style>
    </defs>
    <g id="Layer_6">
        <path class="cls-2"
              d="M234.15,138.87c15.39-4.91,28.52-16.25,28.52-40.06v-43.08c0-37.8-27.01-45.73-60.41-45.73h-80.88v218.76c0,9.76-6.7,17.64-25.27,17.64s-24.75-7.88-24.75-17.64V10H10v219.51c0,37.53,37.64,45.03,85.6,45.03h107.78c33.78,0,60.79-7.93,60.42-45.72v-48.38c0-24.94-13.51-37.04-29.65-41.57ZM182.75,39.1h18.38c12.39,0,16.89,7.93,16.89,18.14v48.37c0,9.83-4.5,17.76-16.89,17.76h-18.38V39.1ZM219.14,227.3c0,10.21-4.12,18.14-16.88,18.14h-19.51v-92.21h19.51c12.38,0,16.88,7.94,16.88,17.76v56.31Z"/>
    </g>
</svg>