<?xml version="1.0" encoding="UTF-8"?>
<svg id="Layer_2" xmlns="http://www.w3.org/2000/svg" viewBox="0 0 318.29 70.76">
    <defs>
        <style>.cls-1{fill:#fff;}.cls-1,.cls-2,.cls-3{stroke-width:0px;}.cls-2{fill:#18181b;}.cls-3{fill:#34d399;}
        </style>
    </defs>
    <g id="Layer_6">
        <path class="cls-2" d="M318.29,0v26.19h-7.23v44.57H21.95C2.13,70.76,0,57.73,0,52.12V0h318.29Z"/>
        <path class="cls-1"
              d="M10,52.12V10h8.57v41.98c0,1.87.79,3.38,3.46,3.38s3.53-1.51,3.53-3.38V10h8.57v42.12c0,7.2-5.47,8.64-12.17,8.64s-11.95-1.44-11.95-8.64Z"/>
        <path class="cls-1" d="M64.14,10v50.4h-8.14l-9.22-31.83v31.83h-6.7V10h7.99l9.36,33.48V10h6.7Z"/>
        <path class="cls-1" d="M70.69,10h8.57v50.4h-8.57V10Z"/>
        <path class="cls-3"
              d="M98.27,60.4h-12.53V10h12.31c6.41,0,11.59,1.51,11.59,8.71v8.21c0,4.54-2.52,6.7-5.47,7.63,3.1.86,5.69,3.17,5.69,7.92v9.22c.07,7.2-5.11,8.71-11.59,8.71ZM97.83,15.54h-3.53v16.06h3.53c2.38,0,3.24-1.51,3.24-3.38v-9.22c0-1.94-.86-3.46-3.24-3.46ZM101.29,40.67c0-1.87-.86-3.38-3.24-3.38h-3.74v17.57h3.74c2.45,0,3.24-1.51,3.24-3.46v-10.73Z"/>
        <path class="cls-3"
              d="M128.58,52.84h-9.15l-1.15,7.56h-7.06l8.42-50.4h10.22l8.42,50.4h-8.57l-1.15-7.56ZM127.79,47.08l-3.67-24.41-3.74,24.41h7.42Z"/>
        <path class="cls-3"
              d="M140.46,52.48v-7.85h8.57v7.42c0,1.94.94,3.38,3.53,3.38s3.38-1.44,3.38-3.38v-10.44c0-2.23-.72-3.53-3.38-3.53h-2.66c-5.47,0-9.43-1.15-9.43-6.48v-13.46c0-7.2,5.69-8.64,11.95-8.64s12.17,1.44,12.17,8.42v8.28h-8.57v-7.85c0-1.94-1.01-3.38-3.6-3.38s-3.38,1.44-3.38,3.38v10.22c0,2.45,1.01,3.46,3.38,3.53h2.66c5.62,0,9.5,1.51,9.5,5.98v14.19c0,7.2-5.54,8.57-12.02,8.57s-12.1-1.37-12.1-8.35Z"/>
        <path class="cls-3" d="M178.62,16.19v15.19h9.79v6.12h-9.79v16.71h9.79v6.19h-18.36V10h18.36v6.19h-9.79Z"/>
        <path class="cls-3"
              d="M227.79,10v50.4h-7.85V25.41l-6.84,35h-6.19l-6.84-35v35h-6.84V10h10.23l7.13,35.5,6.7-35.5h10.51Z"/>
        <path class="cls-3" d="M242.84,16.19v15.19h9.79v6.12h-9.79v16.71h9.79v6.19h-18.36V10h18.36v6.19h-9.79Z"/>
        <path class="cls-3" d="M281.5,10v50.4h-8.14l-9.22-31.83v31.83h-6.7V10h7.99l9.36,33.48V10h6.7Z"/>
        <path class="cls-3" d="M308.29,16.19h-7.92v44.21h-8.57V16.19h-7.92v-6.19h24.41v6.19Z"/>
    </g>
</svg>